<svg width="430" height="430" viewBox="0 0 430 430" fill="none" xmlns="http://www.w3.org/2000/svg">
<rect width="430" height="430" fill="white"/>
<path d="M256.1 221.155C250.976 226.954 244.682 231.604 237.633 234.798C230.584 237.991 222.939 239.657 215.2 239.685" stroke="#121331" stroke-width="7" stroke-linecap="round" stroke-linejoin="round"/>
<path d="M127 217.315C122.755 223.417 117.317 228.596 111.014 232.538C104.711 236.48 97.6744 239.104 90.3293 240.25C82.9842 241.396 75.4829 241.041 68.2787 239.207C61.0745 237.373 54.317 234.097 48.4143 229.578C42.5116 225.059 37.5864 219.39 33.9361 212.914C30.2858 206.438 27.9863 199.289 27.1764 191.899C26.3666 184.509 27.0633 177.032 29.2243 169.919C31.3854 162.806 34.966 156.205 39.7499 150.515" stroke="#4BB3FD" stroke-width="7" stroke-linecap="round" stroke-linejoin="round"/>
<path d="M164.42 206.335C160.677 197.574 159.274 187.991 160.349 178.525C161.424 169.059 164.939 160.034 170.55 152.335" stroke="#121331" stroke-width="7" stroke-linecap="round" stroke-linejoin="round"/>
<path d="M148.85 300.255C179.198 300.255 203.8 275.653 203.8 245.305C203.8 214.957 179.198 190.355 148.85 190.355C118.502 190.355 93.8999 214.957 93.8999 245.305C93.8999 275.653 118.502 300.255 148.85 300.255Z" stroke="#FFC738" stroke-width="7" stroke-linecap="round" stroke-linejoin="round"/>
<path d="M309.25 224.655C302.67 218.366 297.753 210.542 294.941 201.885C292.129 193.228 291.509 184.009 293.137 175.053C294.766 166.098 298.591 157.687 304.271 150.574C309.951 143.461 317.307 137.869 325.68 134.299C334.053 130.729 343.181 129.294 352.245 130.12C361.31 130.947 370.028 134.01 377.617 139.036C385.206 144.062 391.429 150.892 395.728 158.915C400.028 166.938 402.268 175.902 402.25 185.005" stroke="#92140C" stroke-width="7" stroke-linecap="round" stroke-linejoin="round"/>
<path d="M215.2 239.665C204.398 239.71 193.822 236.573 184.792 230.645C175.761 224.718 168.676 216.263 164.42 206.335" stroke="#121331" stroke-width="7" stroke-linecap="round" stroke-linejoin="round"/>
<path d="M281.15 300.515C311.498 300.515 336.1 275.913 336.1 245.565C336.1 215.217 311.498 190.615 281.15 190.615C250.802 190.615 226.2 215.217 226.2 245.565C226.2 275.913 250.802 300.515 281.15 300.515Z" stroke="#08A88A" stroke-width="7" stroke-linecap="round" stroke-linejoin="round"/>
<path d="M170.75 152.155C175.119 146.057 180.689 140.917 187.117 137.051C193.546 133.185 200.697 130.676 208.132 129.676C215.566 128.676 223.127 129.208 230.348 131.239C237.569 133.269 244.299 136.756 250.123 141.483C255.947 146.211 260.743 152.08 264.215 158.729C267.687 165.379 269.762 172.669 270.312 180.15C270.863 187.631 269.877 195.146 267.416 202.232C264.954 209.318 261.069 215.826 256 221.355" stroke="#121331" stroke-width="7" stroke-linecap="round" stroke-linejoin="round"/>
<path d="M39.71 150.515C48.7819 139.568 61.7405 132.559 75.8676 130.959C89.9946 129.359 104.193 133.291 115.483 141.931C126.774 150.572 134.28 163.249 136.427 177.303C138.574 191.357 135.196 205.697 127 217.315" stroke="#4BB3FD" stroke-width="7" stroke-linecap="round" stroke-linejoin="round"/>
<path d="M402.25 185.005C402.228 195.767 399.049 206.286 393.107 215.26C387.165 224.233 378.721 231.266 368.82 235.487C358.92 239.708 347.999 240.931 337.411 239.006C326.822 237.08 317.031 232.09 309.25 224.655" stroke="#92140C" stroke-width="7" stroke-linecap="round" stroke-linejoin="round"/>
</svg>
