<svg width="430" height="430" viewBox="0 0 430 430" fill="none" xmlns="http://www.w3.org/2000/svg">
<path d="M389.26 108.93C388.94 108.497 388.523 108.147 388.041 107.907C387.559 107.667 387.028 107.545 386.49 107.55H347.18L98.9399 107.46C98.6485 107.46 98.3607 107.523 98.0964 107.646C97.8321 107.769 97.5978 107.947 97.4099 108.17C97.2235 108.392 97.0877 108.652 97.0117 108.932C96.9357 109.211 96.9215 109.504 96.9699 109.79L125.06 276.39C125.107 276.671 125.214 276.938 125.373 277.175C125.532 277.411 125.739 277.611 125.982 277.76C126.224 277.91 126.496 278.006 126.778 278.042C127.061 278.078 127.348 278.054 127.62 277.97C129.26 277.46 134.25 277.08 140.56 276.59C147.22 276.08 155.51 275.45 165.4 274.32L311.1 257.72C332.1 255.33 353.98 236.87 359.86 216.57L378.62 151.87C384.31 132.26 389.33 114.94 389.82 113.23C390.068 112.519 390.147 111.76 390.05 111.014C389.952 110.267 389.682 109.554 389.26 108.93Z" fill="#EBE6EF"/>
<path d="M127 276.05C127 276.05 119.91 277.6 116.11 282.32C110.11 289.7 110.27 301.95 131.11 301.95H306.48" stroke="#121331" stroke-width="7" stroke-linecap="round" stroke-linejoin="round"/>
<g style="mix-blend-mode:multiply" opacity="0.5">
<path d="M154 253.1C153.476 253.138 152.95 253.073 152.451 252.907C151.952 252.742 151.491 252.48 151.093 252.137C150.696 251.793 150.37 251.375 150.134 250.905C149.899 250.435 149.758 249.924 149.72 249.4L139.32 107.46H98.9399C98.6485 107.46 98.3607 107.523 98.0964 107.646C97.8321 107.769 97.5978 107.947 97.4099 108.17C97.2235 108.392 97.0877 108.652 97.0117 108.932C96.9357 109.211 96.9215 109.504 96.9699 109.79L125.06 276.39C125.107 276.671 125.214 276.938 125.373 277.175C125.532 277.411 125.739 277.611 125.982 277.76C126.224 277.91 126.496 278.006 126.778 278.042C127.061 278.078 127.348 278.054 127.62 277.97C129.26 277.46 134.25 277.08 140.56 276.59C147.22 276.08 155.51 275.45 165.4 274.32L311.1 257.72C323.76 256.28 336.73 248.99 346.33 238.99L154 253.1Z" fill="#EBE6EF"/>
</g>
<path d="M41.9299 72.55H67.3699C81.3699 72.55 95.5499 88.9 98.9399 109.04L127.03 276.04M98.9399 109.45L347.18 109.54H386.49C387.77 109.54 388.4 110.93 387.9 112.65C387.4 114.37 382.38 131.65 376.7 151.3L357.94 216C352.26 235.61 331.17 253.41 310.88 255.73L165.18 272.32C144.89 274.64 130.63 274.93 127.03 276.05L98.9399 109.45Z" stroke="#121331" stroke-width="7" stroke-linecap="round" stroke-linejoin="round"/>
<path d="M144.14 302C149.628 302 154.993 303.628 159.557 306.677C164.12 309.726 167.677 314.06 169.778 319.131C171.878 324.201 172.427 329.781 171.357 335.164C170.286 340.547 167.643 345.491 163.762 349.372C159.881 353.253 154.937 355.896 149.554 356.967C144.171 358.038 138.591 357.488 133.52 355.388C128.45 353.287 124.116 349.731 121.067 345.167C118.017 340.604 116.39 335.238 116.39 329.75C116.393 322.391 119.317 315.334 124.521 310.131C129.724 304.927 136.781 302.003 144.14 302Z" fill="#646E78"/>
<path d="M308.33 302C313.818 302 319.184 303.628 323.747 306.677C328.311 309.726 331.867 314.06 333.968 319.131C336.068 324.201 336.617 329.781 335.547 335.164C334.476 340.547 331.833 345.491 327.952 349.372C324.071 353.253 319.127 355.896 313.744 356.967C308.361 358.038 302.781 357.488 297.711 355.388C292.64 353.287 288.306 349.731 285.257 345.167C282.207 340.604 280.58 335.238 280.58 329.75C280.583 322.391 283.507 315.334 288.711 310.131C293.914 304.927 300.971 302.003 308.33 302Z" fill="#646E78"/>
<g style="mix-blend-mode:multiply" opacity="0.5">
<path d="M150.54 349.92C145.664 349.922 140.873 348.639 136.651 346.199C132.429 343.76 128.924 340.25 126.491 336.025C124.057 331.799 122.78 327.007 122.789 322.131C122.797 317.255 124.091 312.467 126.54 308.25C123.395 310.826 120.855 314.061 119.098 317.726C117.342 321.392 116.412 325.399 116.374 329.463C116.337 333.528 117.193 337.551 118.882 341.248C120.571 344.946 123.051 348.227 126.148 350.86C129.245 353.493 132.882 355.413 136.803 356.486C140.724 357.558 144.832 357.756 148.838 357.065C152.844 356.374 156.649 354.812 159.984 352.489C163.319 350.166 166.104 347.138 168.14 343.62C163.184 347.703 156.961 349.93 150.54 349.92Z" fill="#646E78"/>
</g>
<g style="mix-blend-mode:multiply" opacity="0.5">
<path d="M314.73 349.92C309.854 349.922 305.063 348.639 300.841 346.199C296.619 343.76 293.114 340.25 290.681 336.025C288.247 331.799 286.97 327.007 286.979 322.131C286.987 317.255 288.281 312.467 290.73 308.25C287.585 310.826 285.045 314.061 283.288 317.726C281.532 321.392 280.602 325.399 280.564 329.463C280.527 333.528 281.383 337.551 283.072 341.248C284.761 344.946 287.241 348.227 290.338 350.86C293.435 353.493 297.072 355.413 300.993 356.486C304.914 357.558 309.022 357.756 313.028 357.065C317.034 356.374 320.839 354.812 324.174 352.489C327.509 350.166 330.294 347.138 332.33 343.62C327.374 347.703 321.151 349.93 314.73 349.92Z" fill="#646E78"/>
</g>
<path d="M144.14 302C149.628 302 154.993 303.628 159.557 306.677C164.12 309.726 167.677 314.06 169.778 319.131C171.878 324.201 172.427 329.781 171.357 335.164C170.286 340.547 167.643 345.491 163.762 349.372C159.881 353.253 154.937 355.896 149.554 356.967C144.171 358.038 138.591 357.488 133.52 355.388C128.45 353.287 124.116 349.731 121.067 345.167C118.017 340.604 116.39 335.238 116.39 329.75C116.393 322.391 119.317 315.334 124.521 310.131C129.724 304.927 136.781 302.003 144.14 302V302Z" stroke="#121331" stroke-width="7" stroke-linecap="round" stroke-linejoin="round"/>
<path d="M308.33 302C313.818 302 319.184 303.628 323.747 306.677C328.311 309.726 331.867 314.06 333.968 319.131C336.068 324.201 336.617 329.781 335.547 335.164C334.476 340.547 331.833 345.491 327.952 349.372C324.071 353.253 319.127 355.896 313.744 356.967C308.361 358.038 302.781 357.488 297.711 355.388C292.64 353.287 288.306 349.731 285.257 345.167C282.207 340.604 280.58 335.238 280.58 329.75C280.583 322.391 283.507 315.334 288.711 310.131C293.914 304.927 300.971 302.003 308.33 302Z" stroke="#121331" stroke-width="7" stroke-linecap="round" stroke-linejoin="round"/>
</svg>
